<svg width="819" height="640" viewBox="0 0 819 640" fill="none" xmlns="http://www.w3.org/2000/svg">
<rect x="76" y="73" width="667" height="494" rx="48" fill="#22C55E" fill-opacity="0.5"/>
<rect x="152" y="146" width="667" height="494" rx="48" fill="#22C55E" fill-opacity="0.25"/>
<rect width="667" height="494" rx="48" fill="#22C55E"/>
<path d="M598.186 306.389L433.489 163.864L413.618 113.537C412.106 109.695 408.568 107.022 404.449 106.617C400.338 106.218 396.341 108.156 394.112 111.626L148.592 493.536H399.622L441.813 386.827L540.122 406.353C555.192 409.674 570.808 403.882 580.057 391.54L603.911 359.74C616.308 343.205 613.809 319.907 598.186 306.389Z" fill="white"/>
<path d="M245.896 214.36C229.766 235.702 254.525 255.274 238.402 276.63C222.272 297.971 197.515 278.405 181.385 299.746C165.255 321.088 190.013 340.668 173.896 362.01C157.774 383.352 133.009 363.779 116.887 385.113C100.764 406.455 125.53 426.029 109.399 447.377C93.2765 468.719 64.3931 460.231 57 493.536H123.612L327.388 180.053C290.234 195.319 262.026 193.004 245.896 214.36Z" fill="white"/>
<path d="M572.933 63.7043C574.314 60.2293 573.042 56.253 569.893 54.2252C566.745 52.2162 562.6 52.7188 560.022 55.4319L530.775 86.2196L562.493 89.794L572.933 63.7043Z" fill="white"/>
<path d="M534.332 160.195L467.633 152.685L457.233 163.629L514.605 209.529L534.332 160.195Z" fill="white"/>
<path d="M554.094 110.777L511.952 106.038L486.455 132.865L542.732 139.196L554.094 110.777Z" fill="white"/>
</svg>
