<svg width="64" height="64" viewBox="0 0 64 64" fill="none" xmlns="http://www.w3.org/2000/svg">
<g clip-path="url(#clip0_222_9)">
<path d="M32 0C49.6731 0 64 14.3269 64 32C64 49.6731 49.6731 64 32 64C14.3269 64 0 49.6731 0 32C0 14.3269 14.3269 0 32 0ZM37.2998 11.0996C35.0999 11.0997 32.8001 11.7001 30.7002 13C21.6002 18.5 15.7005 31.1998 16.9004 40.7998C17.3004 43.8998 18.6 47.2 21 49.5C22.6 51 25.5001 52.7998 29 52.7998C32.8 52.7998 35.9998 51.3996 38.7998 49.5996C41.6998 47.7996 43.9006 45.3996 45.6006 43.0996C46.0002 42.6998 46.3003 42.1006 46.4004 41.9004C46.8004 41.4004 46.9004 40.8 46.9004 40.5C46.9004 40 46.5002 39.7002 46.2002 39.7002C45.9002 39.7002 45.4998 39.8002 45.2998 40.2002C44.9999 40.6001 44.7003 41.1001 44.4004 41.5C42.1004 44.7 40.4 46.0996 36.5 48.0996C34.8 48.9996 32.8 49.5 31 49.5C25.4001 49.4999 22.7002 44.4 22.2002 40C20.8002 28.8 30.8002 13.2998 37.7002 13.2998C39.3002 13.2998 40.7 14.7004 41 16.9004C41.3999 20.3002 41.2997 22.6997 37.7998 25.5996C37.3998 25.8996 37.3 26.4002 37.5 26.7002C37.8001 27.1001 38.8003 27.2001 40.7002 26.2002C44.5002 24.3002 45.8004 21.4 45.4004 18C45.0004 14.2 41.6998 11.0996 37.2998 11.0996Z" fill="white"/>
</g>
<defs>
<clipPath id="clip0_222_9">
<rect width="64" height="64" fill="white"/>
</clipPath>
</defs>
</svg>
